<?xml version="1.0" encoding="utf-8"?>
<!-- Generator: Adobe Illustrator 24.3.0, SVG Export Plug-In . SVG Version: 6.00 Build 0)  -->
<svg version="1.1" id="Warstwa_1" xmlns="http://www.w3.org/2000/svg" xmlns:xlink="http://www.w3.org/1999/xlink" x="0px" y="0px"
	 viewBox="0 0 392 392" style="enable-background:new 0 0 392 392;" xml:space="preserve">
<style type="text/css">
	.st0{fill:#CF2E2A;}
</style>
<path class="st0" d="M288.7,106.4l82.5,21.7L392,45.6l-15.8-4.2l-13.5,51.4C328.1,37.1,266.4,0,196,0C87.8,0,0,87.8,0,196
	s87.8,196,196,196c72.2,0,135.3-39,169.3-97.2l-14.2-7.7c-31.3,53.1-89,88.8-155.1,88.8c-99.4,0-179.9-80.6-179.9-179.9
	S96.6,16.1,196,16.1c66.6,0,124.9,36.2,155.9,90.2l-59-15.7L288.7,106.4z"/>
<path class="st0" d="M176.3,174.7c-2.5-2.5-4.2-6.6-4.2-10.8c0-5,1.7-8.3,5-11.7c4.2-3.4,8.3-5,15-5.8v35.8
	C183.8,179.7,178.8,177.2,176.3,174.7z M205.4,210.5c8.3,2.5,13.4,5,16.6,7.5c2.5,3.4,4.2,6.6,4.2,11.7c0,5-1.7,8.3-5.8,11.7
	c-4.2,3.4-9.2,5-15,5.8V210.5z M204.6,283v-15c14.2-0.8,25-5,33.3-12.5c8.3-7.5,12.5-17.5,12.5-29.1c0-12.5-3.4-21.7-10.8-27.5
	c-7.5-6.6-18.3-11.7-34.2-15h-0.8v-38.3c10.8,1.7,20,5,29.1,11.7l13.4-18.3c-13.4-9.2-27.5-14.2-42.5-15v-10h-12.5v10
	c-12.5,0.8-23.4,5-31.7,12.5C152.2,144,148,154,148,165.6c0,11.6,3.4,20.8,10.8,26.6c6.6,5.8,18.3,10.8,33.3,14.2v39.1
	c-11.7-1.7-23.4-7.5-35-17.5l-15,17.5c15,13.4,31.7,20.8,50,22.5v15H204.6z"/>
</svg>
