<?xml version="1.0" encoding="utf-8"?>
<!-- Generator: Adobe Illustrator 24.3.0, SVG Export Plug-In . SVG Version: 6.00 Build 0)  -->
<svg version="1.1" id="Warstwa_1" xmlns="http://www.w3.org/2000/svg" xmlns:xlink="http://www.w3.org/1999/xlink" x="0px" y="0px"
	 viewBox="0 0 410 309" style="enable-background:new 0 0 410 309;" xml:space="preserve" preserveAspectRatio="xMidYMid meet">
<style type="text/css">
	.st0{clip-path:url(#SVGID_2_);fill:#C32C12;}
</style>
<g>
	<g>
		<defs>
			<rect id="SVGID_1_" x="0.1" y="0.8" width="409.9" height="308"/>
		</defs>
		<clipPath id="SVGID_2_">
			<use xlink:href="#SVGID_1_"  style="overflow:visible;"/>
		</clipPath>
		<path class="st0" d="M8,24.8C3,32.7,0,42,0,52v204.8c0,9,2.5,17.3,6.6,24.6l129.3-144.7L8,24.8z M254.4,153.6l-41.2,36.1
			c-2.4,2.1-5.4,3.1-8.4,3.1s-6-1.1-8.4-3.2l-41.2-36.1l-131,146.6c7.9,4.9,17.1,7.9,27,7.9h307.2c10,0,19.2-2.9,27-7.9L254.4,153.6
			z M204.8,163l178-155.8c-7.3-4-15.5-6.4-24.4-6.4H51.2c-8.9,0-17.1,2.4-24.4,6.4L204.8,163z M409.6,256.8c0,9-2.5,17.3-6.6,24.6
			L273.7,136.7L401.6,24.8c5,7.9,8,17.2,8,27.2V256.8z"/>
	</g>
</g>
</svg>
