<?xml version="1.0" encoding="utf-8"?>
<!-- Generator: Adobe Illustrator 24.3.0, SVG Export Plug-In . SVG Version: 6.00 Build 0)  -->
<svg version="1.1" id="Warstwa_1" xmlns="http://www.w3.org/2000/svg" xmlns:xlink="http://www.w3.org/1999/xlink" x="0px" y="0px"
	 viewBox="0 0 385 386" style="enable-background:new 0 0 385 386;" xml:space="preserve" preserveAspectRatio="xMidYMid meet">
<style type="text/css">
	.st0{clip-path:url(#SVGID_2_);fill:#C32C12;}
	.st1{fill:#C32C12;}
</style>
<g>
	<g>
		<defs>
			<rect id="SVGID_1_" y="0" width="385" height="386"/>
		</defs>
		<clipPath id="SVGID_2_">
			<use xlink:href="#SVGID_1_"  style="overflow:visible;"/>
		</clipPath>
		<path class="st0" d="M292.3,254.9c-12.6-12.4-28.2-12.4-40.7,0c-9.5,9.4-19,18.9-28.4,28.5c-2.6,2.6-4.7,3.2-7.8,1.4
			c-6.2-3.4-12.7-6.1-18.6-9.8c-27.6-17.4-50.7-39.7-71.2-64.8c-10.2-12.5-19.2-25.8-25.5-40.9c-1.3-3-1-5,1.4-7.5
			c9.5-9.2,18.8-18.6,28.2-28.1c13-13.1,13-28.5-0.1-41.7c-7.4-7.5-14.9-14.9-22.3-22.4c-7.7-7.7-15.3-15.4-23-23
			c-12.6-12.2-28.2-12.2-40.7,0.1C34,56.1,24.8,65.8,15,75.1c-9,8.6-13.6,19-14.6,31.3c-1.5,19.9,3.4,38.7,10.2,57
			c14,38,35.4,71.6,61.4,102.5c35.1,41.8,77,74.8,126.1,98.6c22.1,10.7,45,19,69.8,20.3c17.1,1,32-3.4,43.9-16.7
			c8.2-9.1,17.4-17.4,26-26.2c12.8-13,12.9-28.6,0.2-41.4C322.8,285.3,307.6,270.1,292.3,254.9z"/>
	</g>
</g>
<path class="st1" d="M277,191.1l29.5-5c-4.6-27.1-17.4-51.7-36.9-71.2C249,94.3,223,81.4,194.4,77.4l-4.2,29.7
	c22.2,3.1,42.3,13.1,58.2,29C263.6,151.1,273.4,170.2,277,191.1z"/>
<path class="st1" d="M323.2,62.8C289.1,28.7,246,7.2,198.4,0.6l-4.2,29.7C235.3,36,272.6,54.6,302,84c27.9,27.9,46.2,63.2,52.9,102
	l29.5-5C376.7,136,355.5,95.2,323.2,62.8z"/>
</svg>
